<svg width="29" height="33" viewBox="0 0 29 33" fill="none" xmlns="http://www.w3.org/2000/svg">
<path d="M17.875 27.1053H28M22.9375 22.2105V32M1 30.3684V27.1053C1 25.3744 1.71116 23.7144 2.97703 22.4905C4.2429 21.2665 5.95979 20.5789 7.75 20.5789H14.5M4.375 7.52632C4.375 9.2572 5.08616 10.9172 6.35203 12.1411C7.6179 13.365 9.33479 14.0526 11.125 14.0526C12.9152 14.0526 14.6321 13.365 15.898 12.1411C17.1638 10.9172 17.875 9.2572 17.875 7.52632C17.875 5.79543 17.1638 4.13543 15.898 2.91151C14.6321 1.68759 12.9152 1 11.125 1C9.33479 1 7.6179 1.68759 6.35203 2.91151C5.08616 4.13543 4.375 5.79543 4.375 7.52632Z" stroke="#E52B0E" stroke-width="2" stroke-linecap="round" stroke-linejoin="round"/>
</svg>
