<svg width="22" height="18" viewBox="0 0 22 18" fill="none" xmlns="http://www.w3.org/2000/svg">
<path d="M0 0.799999H2.45649C3.30294 0.799999 4.05773 1.33286 4.34109 2.13047L4.87321 3.62828M4.87321 3.62828L7.67174 11.5056C8.02065 12.4878 9.06532 13.0373 10.0723 12.7684L19.516 10.2468C20.3912 10.0131 21 9.22033 21 8.31447V5.62828C21 4.52371 20.1046 3.62828 19 3.62828H4.87321Z" stroke="#16191E" stroke-width="1.6"/>
<path d="M4.08878 15.5778C4.08878 16.756 5.04391 17.7111 6.22211 17.7111C7.40032 17.7111 8.35545 16.756 8.35545 15.5778C8.35545 14.3996 7.40032 13.4444 6.22211 13.4444C5.04391 13.4444 4.08878 14.3996 4.08878 15.5778ZM5.44434 15.9778H6.22211V15.1778H5.44434V15.9778Z" fill="#16191E"/>
<path d="M14.2001 15.5778C14.2001 16.756 15.1552 17.7111 16.3334 17.7111C17.5116 17.7111 18.4668 16.756 18.4668 15.5778C18.4668 14.3996 17.5116 13.4444 16.3334 13.4444C15.1552 13.4444 14.2001 14.3996 14.2001 15.5778ZM15.5557 15.9778H16.3334V15.1778H15.5557V15.9778Z" fill="#16191E"/>
</svg>
