<svg width="20" height="18" viewBox="0 0 20 18" fill="none" xmlns="http://www.w3.org/2000/svg">
<path d="M10.7998 1.79999H18.7998M10.7998 5.79999H15.7998M10.7998 11.8H18.7998M10.7998 15.8H15.7998M0.799805 1.79999C0.799805 1.53477 0.905161 1.28042 1.0927 1.09288C1.28023 0.905345 1.53459 0.799988 1.7998 0.799988H5.7998C6.06502 0.799988 6.31937 0.905345 6.50691 1.09288C6.69445 1.28042 6.7998 1.53477 6.7998 1.79999V5.79999C6.7998 6.0652 6.69445 6.31956 6.50691 6.50709C6.31937 6.69463 6.06502 6.79999 5.7998 6.79999H1.7998C1.53459 6.79999 1.28023 6.69463 1.0927 6.50709C0.905161 6.31956 0.799805 6.0652 0.799805 5.79999V1.79999ZM0.799805 11.8C0.799805 11.5348 0.905161 11.2804 1.0927 11.0929C1.28023 10.9053 1.53459 10.8 1.7998 10.8H5.7998C6.06502 10.8 6.31937 10.9053 6.50691 11.0929C6.69445 11.2804 6.7998 11.5348 6.7998 11.8V15.8C6.7998 16.0652 6.69445 16.3196 6.50691 16.5071C6.31937 16.6946 6.06502 16.8 5.7998 16.8H1.7998C1.53459 16.8 1.28023 16.6946 1.0927 16.5071C0.905161 16.3196 0.799805 16.0652 0.799805 15.8V11.8Z" stroke="#117FE3" stroke-width="1.6" stroke-linecap="round" stroke-linejoin="round"/>
</svg>
