<svg width="70" height="54" viewBox="0 0 70 54" fill="none" xmlns="http://www.w3.org/2000/svg">
<path d="M37.6111 12.1111H54.5M37.6111 20.5556H48.1667M37.6111 33.2222H54.5M37.6111 41.6667H48.1667M16.5 12.1111C16.5 11.5512 16.7224 11.0142 17.1183 10.6183C17.5142 10.2224 18.0512 10 18.6111 10H27.0556C27.6155 10 28.1524 10.2224 28.5483 10.6183C28.9442 11.0142 29.1667 11.5512 29.1667 12.1111V20.5556C29.1667 21.1155 28.9442 21.6524 28.5483 22.0483C28.1524 22.4442 27.6155 22.6667 27.0556 22.6667H18.6111C18.0512 22.6667 17.5142 22.4442 17.1183 22.0483C16.7224 21.6524 16.5 21.1155 16.5 20.5556V12.1111ZM16.5 33.2222C16.5 32.6623 16.7224 32.1254 17.1183 31.7294C17.5142 31.3335 18.0512 31.1111 18.6111 31.1111H27.0556C27.6155 31.1111 28.1524 31.3335 28.5483 31.7294C28.9442 32.1254 29.1667 32.6623 29.1667 33.2222V41.6667C29.1667 42.2266 28.9442 42.7635 28.5483 43.1595C28.1524 43.5554 27.6155 43.7778 27.0556 43.7778H18.6111C18.0512 43.7778 17.5142 43.5554 17.1183 43.1595C16.7224 42.7635 16.5 42.2266 16.5 41.6667V33.2222Z" stroke="white" stroke-width="1.8" stroke-linecap="round" stroke-linejoin="round"/>
</svg>
