<svg width="17" height="19" viewBox="0 0 17 19" fill="none" xmlns="http://www.w3.org/2000/svg">
<path opacity="0.9" d="M0.796875 4.13332H2.46354M2.46354 4.13332H15.7969M2.46354 4.13332V15.8C2.46354 16.242 2.63914 16.6659 2.9517 16.9785C3.26426 17.2911 3.68818 17.4667 4.13021 17.4667H12.4635C12.9056 17.4667 13.3295 17.2911 13.6421 16.9785C13.9546 16.6659 14.1302 16.242 14.1302 15.8V4.13332H2.46354ZM4.96354 4.13332V2.46665C4.96354 2.02463 5.13914 1.6007 5.4517 1.28814C5.76426 0.975582 6.18818 0.799988 6.63021 0.799988H9.96354C10.4056 0.799988 10.8295 0.975582 11.1421 1.28814C11.4546 1.6007 11.6302 2.02463 11.6302 2.46665V4.13332M6.63021 8.29999V13.3M9.96354 8.29999V13.3" stroke="#A3AEBD" stroke-width="1.6" stroke-linecap="round" stroke-linejoin="round"/>
</svg>
