<svg width="20" height="20" viewBox="0 0 20 20" fill="none" xmlns="http://www.w3.org/2000/svg">
<path d="M6.7998 12.8L12.7998 6.79999M7.7998 7.29999C7.7998 7.57613 7.57595 7.79999 7.2998 7.79999C7.02366 7.79999 6.7998 7.57613 6.7998 7.29999C6.7998 7.02385 7.02366 6.79999 7.2998 6.79999C7.57595 6.79999 7.7998 7.02385 7.7998 7.29999ZM12.7998 12.3C12.7998 12.5761 12.5759 12.8 12.2998 12.8C12.0237 12.8 11.7998 12.5761 11.7998 12.3C11.7998 12.0238 12.0237 11.8 12.2998 11.8C12.5759 11.8 12.7998 12.0238 12.7998 12.3ZM0.799805 9.79999C0.799805 10.9819 1.0326 12.1522 1.48489 13.2441C1.93718 14.3361 2.60012 15.3282 3.43584 16.1639C4.27157 16.9997 5.26372 17.6626 6.35565 18.1149C7.44758 18.5672 8.61791 18.8 9.7998 18.8C10.9817 18.8 12.152 18.5672 13.244 18.1149C14.3359 17.6626 15.328 16.9997 16.1638 16.1639C16.9995 15.3282 17.6624 14.3361 18.1147 13.2441C18.567 12.1522 18.7998 10.9819 18.7998 9.79999C18.7998 8.61809 18.567 7.44777 18.1147 6.35584C17.6624 5.26391 16.9995 4.27175 16.1638 3.43603C15.328 2.6003 14.3359 1.93736 13.244 1.48507C12.152 1.03278 10.9817 0.799988 9.7998 0.799988C8.61791 0.799988 7.44758 1.03278 6.35565 1.48507C5.26372 1.93736 4.27157 2.6003 3.43584 3.43603C2.60012 4.27175 1.93718 5.26391 1.48489 6.35584C1.0326 7.44777 0.799805 8.61809 0.799805 9.79999Z" stroke="#117FE3" stroke-width="1.6" stroke-linecap="round" stroke-linejoin="round"/>
</svg>
