<svg width="19" height="19" viewBox="0 0 19 19" fill="none" xmlns="http://www.w3.org/2000/svg">
<path opacity="0.9" d="M13.2969 1.49034C13.5157 1.27147 13.7756 1.09786 14.0615 0.979405C14.3475 0.860954 14.654 0.799988 14.9635 0.799988C15.2731 0.799988 15.5796 0.860954 15.8655 0.979405C16.1515 1.09786 16.4113 1.27147 16.6302 1.49034C16.8491 1.70921 17.0227 1.96905 17.1411 2.25502C17.2596 2.54098 17.3206 2.84748 17.3206 3.15701C17.3206 3.46654 17.2596 3.77304 17.1411 4.059C17.0227 4.34497 16.8491 4.60481 16.6302 4.82368L5.38021 16.0737L0.796875 17.3237L2.04688 12.7403L13.2969 1.49034Z" stroke="#A3AEBD" stroke-width="1.6" stroke-linecap="round" stroke-linejoin="round"/>
</svg>
