<svg width="70" height="54" viewBox="0 0 70 54" fill="none" xmlns="http://www.w3.org/2000/svg">
<path d="M16.25 46.75V42C16.25 39.4804 17.2506 37.0641 19.0316 35.2825C20.8126 33.5009 23.2282 32.5 25.747 32.5H34.0568M20.9985 13.5C20.9985 16.0196 21.9991 18.4359 23.7801 20.2175C25.5611 21.9991 27.9767 23 30.4955 23C33.0142 23 35.4298 21.9991 37.2108 20.2175C38.9919 18.4359 39.9924 16.0196 39.9924 13.5C39.9924 10.9804 38.9919 8.56408 37.2108 6.78249C35.4298 5.00089 33.0142 4 30.4955 4C27.9767 4 25.5611 5.00089 23.7801 6.78249C21.9991 8.56408 20.9985 10.9804 20.9985 13.5ZM45.7381 33.9487C46.2011 33.4856 46.7508 33.1182 47.3557 32.8675C47.9607 32.6169 48.609 32.4879 49.2638 32.4879C49.9186 32.4879 50.567 32.6169 51.172 32.8675C51.7769 33.1182 52.3266 33.4856 52.7896 33.9487C53.2526 34.4119 53.6199 34.9618 53.8704 35.5669C54.121 36.172 54.25 36.8206 54.25 37.4756C54.25 38.1306 54.121 38.7792 53.8704 39.3844C53.6199 39.9895 53.2526 40.5393 52.7896 41.0025L44.7409 49.125H37.6182V42L45.7381 33.9487Z" stroke="#2C333D" stroke-width="1.8" stroke-linecap="round" stroke-linejoin="round"/>
</svg>
