<svg width="20" height="14" viewBox="0 0 20 14" fill="none" xmlns="http://www.w3.org/2000/svg">
<g opacity="0.3">
<path d="M7.79688 6.79999C7.79688 7.33042 8.00759 7.83913 8.38266 8.2142C8.75773 8.58927 9.26644 8.79999 9.79688 8.79999C10.3273 8.79999 10.836 8.58927 11.2111 8.2142C11.5862 7.83913 11.7969 7.33042 11.7969 6.79999C11.7969 6.26955 11.5862 5.76085 11.2111 5.38577C10.836 5.0107 10.3273 4.79999 9.79688 4.79999C9.26644 4.79999 8.75773 5.0107 8.38266 5.38577C8.00759 5.76085 7.79688 6.26955 7.79688 6.79999Z" stroke="black" stroke-width="1.6" stroke-linecap="round" stroke-linejoin="round"/>
<path d="M18.7969 6.79999C16.3969 10.8 13.3969 12.8 9.79688 12.8C6.19688 12.8 3.19688 10.8 0.796875 6.79999C3.19688 2.79999 6.19688 0.799988 9.79688 0.799988C13.3969 0.799988 16.3969 2.79999 18.7969 6.79999Z" stroke="black" stroke-width="1.6" stroke-linecap="round" stroke-linejoin="round"/>
</g>
</svg>
