<svg width="40" height="35" viewBox="0 0 40 35" fill="none" xmlns="http://www.w3.org/2000/svg">
<path d="M35.968 3.83012C35.039 2.90118 33.9374 2.16429 32.723 1.66153C31.5105 1.15875 30.2107 0.899994 28.8963 0.899994C27.5838 0.899994 26.2822 1.15875 25.0696 1.66153C23.8553 2.16429 22.7536 2.90118 21.8247 3.83012L19.8977 5.7571L17.9709 3.83012C16.0954 1.95461 13.5518 0.900956 10.8993 0.900956C8.24695 0.900956 5.70316 1.95461 3.82763 3.83012C1.9521 5.70566 0.898438 8.24945 0.898438 10.9018C0.898438 13.5541 1.9521 16.0979 3.82763 17.9734L5.75461 19.9004L19.8977 34.0437L34.041 19.9004L35.968 17.9734C36.8969 17.0448 37.6332 15.9424 38.1367 14.7292C38.6403 13.5157 38.8984 12.2152 38.8984 10.9018C38.8984 9.58833 38.6403 8.28781 38.1367 7.07435C37.6332 5.86109 36.8969 4.75871 35.968 3.83012Z" stroke="#2C333D" stroke-width="1.8" stroke-linecap="round" stroke-linejoin="round"/>
</svg>
