<svg width="70" height="54" viewBox="0 0 70 54" fill="none" xmlns="http://www.w3.org/2000/svg">
<path d="M38.8082 18.4444V14.2222C38.8082 13.1024 38.3633 12.0285 37.5715 11.2367C36.7797 10.4448 35.7057 10 34.5859 10H19.8082C18.6884 10 17.6144 10.4448 16.8226 11.2367C16.0308 12.0285 15.5859 13.1024 15.5859 14.2222V39.5556C15.5859 40.6754 16.0308 41.7493 16.8226 42.5411C17.6144 43.3329 18.6884 43.7778 19.8082 43.7778H34.5859C35.7057 43.7778 36.7797 43.3329 37.5715 42.5411C38.3633 41.7493 38.8082 40.6754 38.8082 39.5556V35.3333M28.2526 26.8889H53.5859M53.5859 26.8889L47.2526 20.5556M53.5859 26.8889L47.2526 33.2222" stroke="#2C333D" stroke-width="1.8" stroke-linecap="round" stroke-linejoin="round"/>
</svg>
