<svg width="15" height="15" viewBox="0 0 15 15" fill="none" xmlns="http://www.w3.org/2000/svg">
<circle cx="7.5" cy="7.5" r="7.5" fill="#E52B0E"/>
<path d="M5.39551 6.225C5.43151 4.929 6.20551 4.137 7.44751 4.137C8.60851 4.137 9.40051 4.821 9.40051 5.829C9.40051 6.441 9.05851 6.936 8.51851 7.116C9.22951 7.296 9.66151 7.845 9.66151 8.601C9.66151 9.807 8.74351 10.635 7.42951 10.635C6.11551 10.635 5.24251 9.807 5.24251 8.565V8.43H6.23251C6.25951 9.312 6.66451 9.753 7.45651 9.753C8.14951 9.753 8.59051 9.321 8.59051 8.628C8.59051 7.854 8.00551 7.575 7.33051 7.575C7.21351 7.575 7.15951 7.575 7.00651 7.584V6.81H7.09651C7.72651 6.81 8.39251 6.711 8.39251 5.901C8.39251 5.352 8.01451 4.983 7.42951 4.983C6.77251 4.983 6.40351 5.415 6.37651 6.225H5.39551Z" fill="white"/>
</svg>
