<svg width="70" height="54" viewBox="0 0 70 54" fill="none" xmlns="http://www.w3.org/2000/svg">
<path d="M34.75 27.0272C34.1893 27.0272 33.6516 26.8045 33.2551 26.408C32.8586 26.0115 32.6359 25.4738 32.6359 24.9131C32.6359 24.3524 32.8586 23.8146 33.2551 23.4181C33.6516 23.0217 34.1893 22.7989 34.75 22.7989C35.3107 22.7989 35.8484 23.0217 36.2449 23.4181C36.6414 23.8146 36.8641 24.3524 36.8641 24.9131C36.8641 25.4738 36.6414 26.0115 36.2449 26.408C35.8484 26.8045 35.3107 27.0272 34.75 27.0272ZM34.75 27.0272V32.3125M34.75 8C39.6883 12.369 46.1335 14.6438 52.7201 14.3424C53.6791 17.6045 53.9725 21.0262 53.583 24.4039C53.1934 27.7817 52.1288 31.0467 50.4525 34.005C48.7762 36.9632 46.5223 39.5542 43.8248 41.6242C41.1273 43.6941 38.0413 45.2007 34.75 46.0544C31.4587 45.2007 28.3727 43.6941 25.6752 41.6242C22.9777 39.5542 20.7238 36.9632 19.0475 34.005C17.3712 31.0467 16.3066 27.7817 15.917 24.4039C15.5275 21.0262 15.8209 17.6045 16.7799 14.3424C23.3665 14.6438 29.8117 12.369 34.75 8Z" stroke="#2C333D" stroke-width="1.8" stroke-linecap="round" stroke-linejoin="round"/>
</svg>
