<svg width="23" height="23" viewBox="0 0 23 23" fill="none" xmlns="http://www.w3.org/2000/svg">
<path opacity="0.9" d="M6.168 18.349C6.41551 17.5252 6.92197 16.8032 7.61225 16.29C8.30252 15.7768 9.13985 15.4997 10 15.5H14C14.8613 15.4997 15.6996 15.7774 16.3904 16.2918C17.0812 16.8062 17.5875 17.5298 17.834 18.355M3 11.5C3 12.6819 3.23279 13.8522 3.68508 14.9442C4.13738 16.0361 4.80031 17.0282 5.63604 17.864C6.47177 18.6997 7.46392 19.3626 8.55585 19.8149C9.64778 20.2672 10.8181 20.5 12 20.5C13.1819 20.5 14.3522 20.2672 15.4442 19.8149C16.5361 19.3626 17.5282 18.6997 18.364 17.864C19.1997 17.0282 19.8626 16.0361 20.3149 14.9442C20.7672 13.8522 21 12.6819 21 11.5C21 10.3181 20.7672 9.14778 20.3149 8.05585C19.8626 6.96392 19.1997 5.97177 18.364 5.13604C17.5282 4.30031 16.5361 3.63738 15.4442 3.18508C14.3522 2.73279 13.1819 2.5 12 2.5C10.8181 2.5 9.64778 2.73279 8.55585 3.18508C7.46392 3.63738 6.47177 4.30031 5.63604 5.13604C4.80031 5.97177 4.13738 6.96392 3.68508 8.05585C3.23279 9.14778 3 10.3181 3 11.5ZM9 9.5C9 10.2956 9.31607 11.0587 9.87868 11.6213C10.4413 12.1839 11.2044 12.5 12 12.5C12.7956 12.5 13.5587 12.1839 14.1213 11.6213C14.6839 11.0587 15 10.2956 15 9.5C15 8.70435 14.6839 7.94129 14.1213 7.37868C13.5587 6.81607 12.7956 6.5 12 6.5C11.2044 6.5 10.4413 6.81607 9.87868 7.37868C9.31607 7.94129 9 8.70435 9 9.5Z" stroke="#A3AEBD" stroke-width="1.6" stroke-linecap="round" stroke-linejoin="round"/>
</svg>
