<svg width="33" height="25" viewBox="0 0 33 25" fill="none" xmlns="http://www.w3.org/2000/svg">
<rect x="7.8" y="4.3" width="17.4" height="17.4" rx="5.2" stroke="#16191E" stroke-width="1.6"/>
<path d="M16.5005 7.46643C17.408 7.46655 18.2787 7.82768 18.9204 8.46936C19.5619 9.11111 19.9224 9.98186 19.9224 10.8893C19.9222 11.7968 19.5621 12.6675 18.9204 13.3092C18.2787 13.9509 17.408 14.311 16.5005 14.3112C15.5931 14.3112 14.7223 13.9507 14.0806 13.3092C13.4389 12.6675 13.0778 11.7968 13.0776 10.8893C13.0776 9.98166 13.4388 9.11116 14.0806 8.46936C14.7224 7.82757 15.5929 7.46643 16.5005 7.46643Z" stroke="#16191E" stroke-width="1.6"/>
<path d="M22.8332 20.3889C22.8332 17.1502 19.9976 15.1111 16.4998 15.1111C13.002 15.1111 10.1665 17.1502 10.1665 20.3889" stroke="#16191E" stroke-width="1.6"/>
</svg>
