<svg width="70" height="54" viewBox="0 0 70 54" fill="none" xmlns="http://www.w3.org/2000/svg">
<path d="M34.4181 38L30.4845 30L16.717 23C16.5287 22.9123 16.3691 22.7714 16.2573 22.5941C16.1454 22.4168 16.0859 22.2106 16.0859 22C16.0859 21.7894 16.1454 21.5832 16.2573 21.4059C16.3691 21.2286 16.5287 21.0877 16.717 21L52.1192 8L46.4135 24.068M48.1856 38V38.02M52.3571 42.242C53.1825 41.403 53.7446 40.3339 53.9724 39.1699C54.2002 38.006 54.0835 36.7995 53.637 35.703C53.1904 34.6066 52.4342 33.6694 51.4638 33.01C50.4935 32.3507 49.3526 31.9987 48.1856 31.9987C47.0185 31.9987 45.8777 32.3507 44.9073 33.01C43.937 33.6694 43.1807 34.6066 42.7342 35.703C42.2877 36.7995 42.1709 38.006 42.3987 39.1699C42.6265 40.3339 43.1887 41.403 44.014 42.242C44.8361 43.08 46.2267 44.332 48.1856 46C50.2527 44.22 51.6452 42.968 52.3571 42.242Z" stroke="#2C333D" stroke-width="1.8" stroke-linecap="round" stroke-linejoin="round"/>
</svg>
