<svg width="17" height="15" viewBox="0 0 17 15" fill="none" xmlns="http://www.w3.org/2000/svg">
<path d="M0.0110077 14.3976C0.136831 12.6755 0.259778 11.0235 0.376973 9.37155C0.394229 9.13123 0.513581 9.03614 0.736467 8.99559C2.86515 8.60686 4.9936 8.21371 7.12181 7.81613C7.19359 7.81378 7.26401 7.79542 7.32816 7.76231C7.41444 7.69671 7.54026 7.60235 7.5381 7.52273C7.53595 7.44312 7.41228 7.31338 7.32241 7.29126C6.88167 7.18364 6.43446 7.10181 5.98796 7.01483C4.22788 6.67057 2.46492 6.32189 0.704832 5.9909C0.43593 5.94004 0.334553 5.79629 0.318735 5.5486C0.210887 3.83395 0.103038 2.1193 0.00237965 0.403914C-0.022066 -0.0170077 0.139707 -0.0936729 0.586199 0.103151C3.76797 1.50868 6.94973 2.91446 10.1315 4.32048C12.2928 5.27438 14.4538 6.22974 16.6146 7.18659C16.7584 7.25146 16.872 7.40036 17 7.51094C16.8778 7.62741 16.7742 7.79106 16.6297 7.85446C11.3265 10.1849 6.02032 12.5092 0.711303 14.8273C0.0361727 15.1192 -0.0177518 15.0816 0.0110077 14.3976Z" fill="#3F454A"/>
</svg>
