<svg width="19" height="15" viewBox="0 0 19 15" fill="none" xmlns="http://www.w3.org/2000/svg">
<path d="M0.799805 5.44284H17.7998M4.57758 10.0857H4.58703M8.35536 10.0857H10.2442M0.799805 3.5857C0.799805 2.84688 1.09832 2.13833 1.62967 1.6159C2.16102 1.09348 2.88169 0.799988 3.63314 0.799988H14.9665C15.7179 0.799988 16.4386 1.09348 16.9699 1.6159C17.5013 2.13833 17.7998 2.84688 17.7998 3.5857V11.0143C17.7998 11.7531 17.5013 12.4616 16.9699 12.9841C16.4386 13.5065 15.7179 13.8 14.9665 13.8H3.63314C2.88169 13.8 2.16102 13.5065 1.62967 12.9841C1.09832 12.4616 0.799805 11.7531 0.799805 11.0143V3.5857Z" stroke="#117FE3" stroke-width="1.6" stroke-linecap="round" stroke-linejoin="round"/>
</svg>
